<svg width="24" height="25" viewBox="0 0 24 25" fill="none" xmlns="http://www.w3.org/2000/svg">
<g clip-path="url(#clip0_24_396)">
<path d="M15.0001 19.4253C15.0003 19.9299 14.8097 20.4159 14.4666 20.7858C14.1235 21.1558 13.6532 21.3825 13.1501 21.4203L13.0001 21.4253H11.0001C10.4955 21.4255 10.0095 21.2349 9.63954 20.8918C9.26956 20.5487 9.04294 20.0784 9.00509 19.5753L9.00009 19.4253H15.0001ZM12.0001 2.42529C13.8151 2.42526 15.5591 3.13019 16.8643 4.39137C18.1695 5.65255 18.9339 7.37138 18.9961 9.18529L19.0001 9.42529V13.1893L20.8221 16.8333C20.9016 16.9923 20.9414 17.1682 20.9381 17.3459C20.9347 17.5237 20.8884 17.698 20.8029 17.8539C20.7175 18.0098 20.5956 18.1427 20.4476 18.2411C20.2996 18.3396 20.1299 18.4007 19.9531 18.4193L19.8381 18.4253H4.16209C3.98426 18.4253 3.80906 18.3823 3.65151 18.2998C3.49397 18.2173 3.35877 18.0978 3.25751 17.9516C3.15625 17.8055 3.09194 17.6369 3.0701 17.4604C3.04825 17.2839 3.06953 17.1048 3.13209 16.9383L3.17809 16.8333L5.00009 13.1893V9.42529C5.00009 7.56878 5.73759 5.7883 7.05035 4.47555C8.3631 3.16279 10.1436 2.42529 12.0001 2.42529Z" fill="#9A6AFF"/>
</g>
<defs>
<clipPath id="clip0_24_396">
<rect width="24" height="24" fill="white" transform="translate(0 0.425293)"/>
</clipPath>
</defs>
</svg>
